{
  "accessors": [
    {
      "bufferView": 2,
      "componentType": 5126,
      "count": 65532,
      "max": [
        1,
        1,
        1
      ],
      "min": [
        -1,
        -1,
        -1
      ],
      "type": "VEC3"
    },
    {
      "bufferView": 2,
      "byteOffset": 786384,
      "componentType": 5126,
      "count": 65532,
      "max": [
        1,
        1,
        0.99999850988388062
      ],
      "min": [
        -1,
        -1,
        -0.99999850988388062
      ],
      "type": "VEC3"
    },
    {
      "bufferView": 3,
      "componentType": 5126,
      "count": 65532,
      "max": [
        1,
        0.0026323208585381508,
        1,
        1
      ],
      "min": [
        -1,
        -0.0026043367106467485,
        -1,
        1
      ],
      "type": "VEC4"
    },
    {
      "bufferView": 1,
      "componentType": 5126,
      "count": 65532,
      "max": [
        1,
        1
      ],
      "min": [
        0,
        0
      ],
      "type": "VEC2"
    },
    {
      "bufferView": 1,
      "byteOffset": 524256,
      "componentType": 5126,
      "count": 65532,
      "max": [
        1,
        1
      ],
      "min": [
        0,
        0
      ],
      "type": "VEC2"
    },
    {
      "bufferView": 1,
      "byteOffset": 1048512,
      "componentType": 5126,
      "count": 65532,
      "max": [
        1,
        1
      ],
      "min": [
        0,
        0
      ],
      "type": "VEC2"
    },
    {
      "bufferView": 0,
      "componentType": 5125,
      "count": 379050,
      "max": [
        65531
      ],
      "min": [
        0
      ],
      "type": "SCALAR"
    },
    {
      "bufferView": 2,
      "byteOffset": 1572768,
      "componentType": 5126,
      "count": 65532,
      "max": [
        0.99994516372680664,
        1,
        1
      ],
      "min": [
        -1.2246468525851679e-16,
        -0.99950653314590454,
        -0.99994516372680664
      ],
      "type": "VEC3"
    },
    {
      "bufferView": 2,
      "byteOffset": 2359152,
      "componentType": 5126,
      "count": 65532,
      "max": [
        0.99994516372680664,
        1,
        0.99999850988388062
      ],
      "min": [
        -1.6491100041093887e-08,
        -0.99948829412460327,
        -0.99994516372680664
      ],
      "type": "VEC3"
    },
    {
      "bufferView": 3,
      "byteOffset": 1048512,
      "componentType": 5126,
      "count": 65532,
      "max": [
        1,
        2.5319996765915675e-08,
        1.9325284483784344e-07,
        1
      ],
      "min": [
        -1,
        -9.9564513220684603e-06,
        -0.99995118379592896,
        1
      ],
      "type": "VEC4"
    },
    {
      "bufferView": 1,
      "byteOffset": 1572768,
      "componentType": 5126,
      "count": 65532,
      "max": [
        0.75,
        1
      ],
      "min": [
        0.25,
        0.0099999997764825821
      ],
      "type": "VEC2"
    },
    {
      "bufferView": 1,
      "byteOffset": 2097024,
      "componentType": 5126,
      "count": 65532,
      "max": [
        0.75,
        1
      ],
      "min": [
        0.25,
        0.0099999997764825821
      ],
      "type": "VEC2"
    },
    {
      "bufferView": 1,
      "byteOffset": 2621280,
      "componentType": 5126,
      "count": 65532,
      "max": [
        0.75,
        1
      ],
      "min": [
        0.25,
        0.0099999997764825821
      ],
      "type": "VEC2"
    },
    {
      "bufferView": 0,
      "byteOffset": 1516200,
      "componentType": 5125,
      "count": 386628,
      "max": [
        65531
      ],
      "min": [
        0
      ],
      "type": "SCALAR"
    },
    {
      "bufferView": 2,
      "byteOffset": 3145536,
      "componentType": 5126,
      "count": 52617,
      "max": [
        0.42577928304672241,
        1,
        0.99994516372680664
      ],
      "min": [
        -0.99994516372680664,
        -0.99978065490722656,
        -1
      ],
      "type": "VEC3"
    },
    {
      "bufferView": 2,
      "byteOffset": 3776940,
      "componentType": 5126,
      "count": 52617,
      "max": [
        0.42578110098838806,
        1,
        0.99994516372680664
      ],
      "min": [
        -0.99994516372680664,
        -0.99976211786270142,
        -0.99999850988388062
      ],
      "type": "VEC3"
    },
    {
      "bufferView": 3,
      "byteOffset": 2097024,
      "componentType": 5126,
      "count": 52617,
      "max": [
        0.99994534254074097,
        9.9711514849332161e-06,
        0.99995392560958862,
        1
      ],
      "min": [
        -1,
        -9.0759267550311051e-06,
        -0.9999619722366333,
        1
      ],
      "type": "VEC4"
    },
    {
      "bufferView": 1,
      "byteOffset": 3145536,
      "componentType": 5126,
      "count": 52617,
      "max": [
        0.99833333492279053,
        1
      ],
      "min": [
        0.25166666507720947,
        0.0066666668280959129
      ],
      "type": "VEC2"
    },
    {
      "bufferView": 1,
      "byteOffset": 3566472,
      "componentType": 5126,
      "count": 52617,
      "max": [
        0.99833333492279053,
        1
      ],
      "min": [
        0.25166666507720947,
        0.0066666668280959129
      ],
      "type": "VEC2"
    },
    {
      "bufferView": 1,
      "byteOffset": 3987408,
      "componentType": 5126,
      "count": 52617,
      "max": [
        0.99833333492279053,
        1
      ],
      "min": [
        0.25166666507720947,
        0.0066666668280959129
      ],
      "type": "VEC2"
    },
    {
      "bufferView": 0,
      "byteOffset": 3062712,
      "componentType": 5125,
      "count": 310722,
      "max": [
        52616
      ],
      "min": [
        0
      ],
      "type": "SCALAR"
    }
  ],
  "asset": {
    "extras": {
      "author": "Stéphane Agullo (https://sketchfab.com/sa3d)",
      "license": "CC-BY-4.0 (http://creativecommons.org/licenses/by/4.0/)",
      "source": "https://sketchfab.com/3d-models/lune-ecf0a02b8151418689e78abec4f94b96",
      "title": "LUNE"
    },
    "generator": "Sketchfab-6.46.0",
    "version": "2.0"
  },
  "bufferViews": [
    {
      "buffer": 0,
      "byteLength": 4305600,
      "byteOffset": 0,
      "name": "floatBufferViews",
      "target": 34963
    },
    {
      "buffer": 0,
      "byteLength": 4408344,
      "byteOffset": 4305600,
      "byteStride": 8,
      "name": "floatBufferViews",
      "target": 34962
    },
    {
      "buffer": 0,
      "byteLength": 4408344,
      "byteOffset": 8713944,
      "byteStride": 12,
      "name": "floatBufferViews",
      "target": 34962
    },
    {
      "buffer": 0,
      "byteLength": 2938896,
      "byteOffset": 13122288,
      "byteStride": 16,
      "name": "floatBufferViews",
      "target": 34962
    }
  ],
  "buffers": [
    {
      "byteLength": 16061184,
      "uri": "scene.bin"
    }
  ],
  "images": [
    {
      "uri": "textures/luna_baseColor.jpeg"
    }
  ],
  "materials": [
    {
      "doubleSided": true,
      "emissiveFactor": [
        0,
        0,
        0
      ],
      "name": "luna",
      "pbrMetallicRoughness": {
        "baseColorFactor": [
          1,
          1,
          1,
          1
        ],
        "baseColorTexture": {
          "index": 0,
          "texCoord": 0
        },
        "metallicFactor": 0.59999999999999998,
        "roughnessFactor": 0.80000000000000004
      }
    }
  ],
  "meshes": [
    {
      "name": "lune_luna_0",
      "primitives": [
        {
          "attributes": {
            "NORMAL": 1,
            "POSITION": 0,
            "TANGENT": 2,
            "TEXCOORD_0": 3,
            "TEXCOORD_1": 4,
            "TEXCOORD_2": 5
          },
          "indices": 6,
          "material": 0,
          "mode": 4
        }
      ]
    },
    {
      "name": "lune_luna_0",
      "primitives": [
        {
          "attributes": {
            "NORMAL": 8,
            "POSITION": 7,
            "TANGENT": 9,
            "TEXCOORD_0": 10,
            "TEXCOORD_1": 11,
            "TEXCOORD_2": 12
          },
          "indices": 13,
          "material": 0,
          "mode": 4
        }
      ]
    },
    {
      "name": "lune_luna_0",
      "primitives": [
        {
          "attributes": {
            "NORMAL": 15,
            "POSITION": 14,
            "TANGENT": 16,
            "TEXCOORD_0": 17,
            "TEXCOORD_1": 18,
            "TEXCOORD_2": 19
          },
          "indices": 20,
          "material": 0,
          "mode": 4
        }
      ]
    }
  ],
  "nodes": [
    {
      "children": [
        1
      ],
      "name": "RootNode (gltf orientation matrix)",
      "rotation": [
        -0.70710678118654746,
        -0,
        -0,
        0.70710678118654757
      ]
    },
    {
      "children": [
        2
      ],
      "name": "RootNode (model correction matrix)"
    },
    {
      "children": [
        3
      ],
      "matrix": [
        1,
        0,
        0,
        0,
        0,
        0,
        1,
        0,
        0,
        -1,
        0,
        0,
        0,
        0,
        0,
        1
      ],
      "name": "37b986c788a74266aa2161fa1e30f359.fbx"
    },
    {
      "children": [
        4
      ],
      "name": "RootNode"
    },
    {
      "children": [
        5,
        6,
        7
      ],
      "name": "lune"
    },
    {
      "mesh": 0,
      "name": "lune_luna_0"
    },
    {
      "mesh": 1,
      "name": "lune_luna_0"
    },
    {
      "mesh": 2,
      "name": "lune_luna_0"
    }
  ],
  "samplers": [
    {
      "magFilter": 9729,
      "minFilter": 9987,
      "wrapS": 10497,
      "wrapT": 10497
    }
  ],
  "scene": 0,
  "scenes": [
    {
      "name": "OSG_Scene",
      "nodes": [
        0
      ]
    }
  ],
  "textures": [
    {
      "sampler": 0,
      "source": 0
    }
  ]
}

